<?xml version="1.0" encoding="UTF-8" standalone="no"?>
<!DOCTYPE svg PUBLIC "-//W3C//DTD SVG 1.1//EN" "http://www.w3.org/Graphics/SVG/1.1/DTD/svg11.dtd">
<svg width="100%" height="100%" viewBox="0 0 640 128" version="1.1" xmlns="http://www.w3.org/2000/svg" xmlns:xlink="http://www.w3.org/1999/xlink" xml:space="preserve" xmlns:serif="http://www.serif.com/" style="fill-rule:evenodd;clip-rule:evenodd;stroke-linejoin:round;stroke-miterlimit:2;">
    <g transform="matrix(0.23295,0,0,0.23295,196.387,64)">
        <g transform="matrix(1,0,0,1,-256,-256)">
            <clipPath id="_clip1">
                <rect x="0" y="0" width="512" height="512"/>
            </clipPath>
            <g clip-path="url(#_clip1)">
                <g>
                    <path d="M128.094,30L50.047,30C38.43,30 29.012,39.418 29.012,51.035L29.012,79.273L89.07,98.859L149.125,79.273L149.125,51.035C149.129,39.418 139.711,30 128.094,30Z" style="fill:rgb(255,203,93);fill-rule:nonzero;"/>
                    <path d="M383.906,30L461.953,30C473.57,30 482.988,39.418 482.988,51.035L482.988,79.273L422.93,98.859L362.871,79.27L362.871,51.035C362.871,39.418 372.289,30 383.906,30Z" style="fill:rgb(255,203,93);fill-rule:nonzero;"/>
                    <path d="M295.023,30L216.977,30C205.359,30 195.941,39.418 195.941,51.035L195.941,79.273L256,98.859L316.055,79.27L316.055,51.035C316.055,39.418 306.641,30 295.023,30Z" style="fill:rgb(255,203,93);fill-rule:nonzero;"/>
                </g>
                <path d="M482.988,79.27L29.012,79.27C12.988,79.27 -0,92.262 -0,108.285L-0,213.656L256,249.195L512,213.656L512,108.285C512,92.262 499.012,79.27 482.988,79.27Z" style="fill:rgb(255,230,117);fill-rule:nonzero;"/>
                <path d="M41.207,213.656L41.207,108.285C41.207,92.262 54.195,79.27 70.219,79.27L29.012,79.27C12.988,79.27 0,92.262 0,108.285L0,213.656L256,249.195L276.605,246.336L41.207,213.656Z" style="fill:rgb(255,203,93);fill-rule:nonzero;"/>
                <path d="M256,318.055L0,348.043L0,453.414C0,469.437 12.988,482.43 29.012,482.43L482.988,482.43C499.012,482.43 512,469.437 512,453.414L512,348.043L256,318.055Z" style="fill:rgb(109,209,224);fill-rule:nonzero;"/>
                <path d="M41.207,453.414L41.207,348.043L276.605,320.469L256,318.055L-0,348.043L-0,453.414C-0,469.437 12.988,482.43 29.012,482.43L70.219,482.43C54.195,482.43 41.207,469.437 41.207,453.414Z" style="fill:rgb(69,192,210);fill-rule:nonzero;"/>
                <rect x="0" y="213.656" width="512" height="134.387" style="fill:rgb(255,158,192);fill-rule:nonzero;"/>
                <rect x="0" y="213.656" width="41.207" height="134.387" style="fill:rgb(255,102,168);fill-rule:nonzero;"/>
                <path d="M162.809,292.508C158.543,292.508 155.082,289.047 155.082,284.781L155.082,267.914C155.082,263.648 158.543,260.188 162.809,260.188C167.078,260.188 170.535,263.648 170.535,267.914L170.535,284.781C170.535,289.047 167.078,292.508 162.809,292.508Z" style="fill:rgb(58,60,76);fill-rule:nonzero;"/>
                <path d="M349.191,292.508C344.922,292.508 341.465,289.047 341.465,284.781L341.465,267.914C341.465,263.648 344.922,260.188 349.191,260.188C353.457,260.188 356.918,263.648 356.918,267.914L356.918,284.781C356.918,289.047 353.457,292.508 349.191,292.508Z" style="fill:rgb(58,60,76);fill-rule:nonzero;"/>
                <path d="M256,301.512C244.809,301.512 234.301,296.84 227.184,288.691C224.371,285.48 224.699,280.598 227.914,277.789C231.129,274.98 236.004,275.309 238.816,278.523C243,283.309 249.266,286.059 256,286.059C262.734,286.059 268.996,283.313 273.184,278.523C275.992,275.309 280.875,274.98 284.086,277.789C287.301,280.598 287.629,285.48 284.816,288.691C277.699,296.84 267.195,301.512 256,301.512Z" style="fill:rgb(58,60,76);fill-rule:nonzero;"/>
            </g>
        </g>
    </g>
    <g transform="matrix(1,0,0,1,113.93,29.6686)">
        <g transform="matrix(74,0,0,74,508.82,45.7206)">
        </g>
        <text x="162.343px" y="45.721px" style="font-family:'Concept';font-size:74px;fill:rgb(4,0,61);">fr<tspan x="217.012px " y="45.721px ">a</tspan>me<tspan x="349.764px 397.351px 436.121px 464.449px " y="45.721px 45.721px 45.721px 45.721px ">work</tspan></text>
    </g>
    <g transform="matrix(1,0,0,1,205.123,-0.957668)">
        <g transform="matrix(22,0,0,22,380.389,101.606)">
        </g>
        <text x="107.486px" y="101.606px" style="font-family:'Krungthep';font-size:22px;fill:rgb(4,0,61);">build solid applications</text>
    </g>
    <g transform="matrix(1.8104,0,0,1.8104,63.0584,63.7743)">
        <g transform="matrix(1,0,0,1,-32,-32)">
            <clipPath id="_clip2">
                <rect x="0" y="0" width="64" height="64"/>
            </clipPath>
            <g clip-path="url(#_clip2)">
                <path d="M39.24,23.116L32.834,29.076L26.89,17.086L29.966,10.19C30.766,8.79 32.014,8.806 32.794,10.19L39.24,23.116Z" style="fill:rgb(255,160,0);fill-rule:nonzero;"/>
                <path d="M26.89,17.086L32.834,29.076L8.894,51.346L26.89,17.086Z" style="fill:rgb(245,127,23);fill-rule:nonzero;"/>
                <path d="M46.246,14.006C47.39,12.906 48.574,13.282 48.876,14.84L55.108,51.05L34.452,63.45C33.732,63.85 31.812,64.022 31.812,64.022C31.812,64.022 30.064,63.814 29.398,63.422L8.894,51.346L46.246,14.006Z" style="fill:rgb(255,202,40);fill-rule:nonzero;"/>
                <path d="M26.89,17.086L8.896,51.346L16.91,1.276C17.206,-0.284 18.094,-0.434 18.886,0.942L26.89,17.086Z" style="fill:rgb(255,160,0);fill-rule:nonzero;"/>
            </g>
        </g>
    </g>
</svg>
